<svg xmlns="http://www.w3.org/2000/svg" width="121" height="27"><path d="M6.05.71C6.19.11 6.44 0 7 0h2.88c.57 0 .81.1.96.71l6 25.26c.15.53-.14.71-.53.71H12.6c-.46 0-.71-.14-.85-.71l-.68-3.06c-.1-.43-.25-.5-.71-.5h-3.8c-.47 0-.61.07-.72.5l-.67 3.06c-.14.57-.4.71-.86.71H.57c-.4 0-.68-.18-.53-.71L6.04.7zm1.03 17.15h2.77c.18 0 .32-.14.29-.4l-1.46-7.32c-.07-.25-.4-.25-.43 0L6.8 17.47c-.07.25.08.39.29.39zM33.32 12.98V21.06c0 4.2-3.06 6.48-6.19 5.83a5.7 5.7 0 01-3.27-2.17l-.28 1.18c-.11.53-.29.78-.82.78h-2.5c-.53 0-.74-.21-.74-.75V.75c0-.54.21-.75.75-.75h3.34c.53 0 .75.21.75.75v8a5.42 5.42 0 012.77-1.6c3.13-.64 6.19 1.64 6.19 5.83zm-6.93-1.63c-1 0-2.03.75-2.03 2.49v6.37c0 1.74 1.03 2.49 2.03 2.49.96.03 2.1-.64 2.1-2.5v-6.36c0-1.85-1.14-2.53-2.1-2.5zM36.23 19.42v-4.8c0-5.55 3.7-7.58 6.9-7.58s6.9 2.03 6.9 7.58v4.8c0 5.55-3.7 7.58-6.9 7.58s-6.9-2.03-6.9-7.58zm6.9-8.07c-.96 0-2.06.64-2.06 2.49v6.37c0 1.85 1.1 2.49 2.06 2.49.93 0 2.06-.64 2.06-2.5v-6.36c0-1.85-1.13-2.5-2.06-2.5zM66.88 8.11v17.82c0 .54-.21.75-.74.75h-2.5c-.52 0-.7-.25-.8-.78l-.3-1.18a5.7 5.7 0 01-3.26 2.17c-3.13.65-6.2-1.63-6.2-5.83V8.11c0-.53.22-.75.75-.75h3.35c.53 0 .74.22.74.75v12.1c0 1.85 1.14 2.52 2.1 2.49 1 0 2.03-.75 2.03-2.5V8.12c0-.53.21-.75.74-.75h3.35c.53 0 .74.22.74.75zM71.5 20.39v-8.54c0-.47-.1-.6-.57-.6h-.7c-.54 0-.75-.22-.75-.75V8.1c0-.53.21-.75.75-.75h.96c.46 0 .6-.1.6-.6v-2.7c0-.54.21-.75.75-.75h2.95c.53 0 .74.21.74.74v2.7c0 .5.11.61.57.61h1.71c.53 0 .75.22.75.75v2.39c0 .53-.22.74-.75.74h-1.57c-.46 0-.6.14-.6.6v8.54c0 1.43.64 2.24 2.17 2.24.53 0 .75.22.75.75v2.56c0 .54-.22.75-.75.75-4.87 0-7-1.67-7-6.3zM105.5.75v17.11c0 5.51-2.53 9.14-7.79 9.14-5.3 0-7.79-3.63-7.79-9.14V.75c0-.54.21-.75.75-.75h3.62c.54 0 .75.21.75.75v17.11c0 2.49.68 4.4 2.67 4.4 1.99 0 2.63-1.91 2.63-4.4V.74c0-.53.21-.74.75-.74h3.66c.53 0 .75.21.75.75zM108.3 21.45c-.03-.32.04-.64.47-.64h3.34c.32 0 .53.1.6.46.29 1.03.86 1.68 1.82 1.68.85 0 1.56-.5 1.56-1.43.14-2.88-7.18-2.92-7.58-8.64-.24-3.6 2.53-5.84 5.87-5.84 2.74 0 5.84 1.6 5.9 5.55 0 .32-.03.64-.46.64h-3.09c-.32 0-.53-.1-.6-.46-.15-.75-.54-1.64-1.53-1.67a1.34 1.34 0 00-1.5 1.28c-.1 2.63 8.04 3.23 7.9 9.1-.07 3.53-2.99 5.52-6.37 5.52-3.41 0-5.86-2-6.33-5.55z"/></svg>