<svg xmlns="http://www.w3.org/2000/svg" width="81" height="18"><path d="M4.05.47c.1-.4.26-.47.64-.47h1.93c.38 0 .55.07.64.47l4.02 16.84c.1.36-.1.48-.35.48h-2.5c-.31 0-.48-.1-.57-.48l-.45-2.04c-.08-.28-.17-.33-.48-.33H4.38c-.3 0-.4.05-.47.33l-.46 2.04c-.1.38-.26.48-.57.48H.38c-.26 0-.45-.12-.36-.48L4.05.48zm.69 11.44h1.85c.12 0 .22-.1.2-.27L5.8 6.76c-.05-.17-.26-.17-.29 0l-.97 4.88c-.05.17.05.27.19.27zM22.3 8.66V14.04c0 2.8-2.04 4.32-4.14 3.89a3.82 3.82 0 01-2.19-1.45l-.19.78c-.07.36-.19.53-.55.53h-1.66c-.36 0-.5-.15-.5-.5V.49c0-.35.14-.49.5-.49h2.24c.35 0 .5.14.5.5v5.33c.47-.5 1.1-.9 1.85-1.06 2.1-.43 4.14 1.09 4.14 3.89zm-4.64-1.1c-.66 0-1.35.5-1.35 1.67v4.24c0 1.16.69 1.66 1.35 1.66.65.02 1.4-.43 1.4-1.66V9.23c0-1.24-.75-1.69-1.4-1.66zM24.25 12.95v-3.2c0-3.7 2.48-5.05 4.62-5.05 2.15 0 4.62 1.35 4.62 5.05v3.2c0 3.7-2.47 5.05-4.62 5.05-2.14 0-4.62-1.35-4.62-5.05zm4.62-5.38c-.64 0-1.38.42-1.38 1.66v4.24c0 1.23.74 1.66 1.38 1.66.62 0 1.38-.43 1.38-1.66V9.23c0-1.24-.76-1.66-1.38-1.66zM44.77 5.4V17.3c0 .35-.14.5-.5.5h-1.66c-.36 0-.48-.17-.55-.52l-.2-.79a3.81 3.81 0 01-2.18 1.45c-2.1.43-4.14-1.1-4.14-3.89V5.41c0-.36.14-.5.5-.5h2.23c.36 0 .5.14.5.5v8.06c0 1.23.77 1.68 1.41 1.66.67 0 1.36-.5 1.36-1.66V5.41c0-.36.14-.5.5-.5h2.24c.35 0 .5.14.5.5zM47.87 13.59v-5.7c0-.3-.08-.4-.39-.4h-.47c-.36 0-.5-.14-.5-.5V5.42c0-.36.14-.5.5-.5h.64c.31 0 .4-.07.4-.4V2.7c0-.36.15-.5.5-.5h1.98c.36 0 .5.14.5.5v1.8c0 .33.07.4.38.4h1.15c.35 0 .5.14.5.5V7c0 .35-.15.5-.5.5H51.5c-.31 0-.4.09-.4.4v5.69c0 .95.42 1.5 1.45 1.5.35 0 .5.14.5.49v1.7c0 .36-.15.5-.5.5-3.27 0-4.7-1.1-4.7-4.19zM70.62.5V11.9c0 3.67-1.69 6.09-5.21 6.09-3.55 0-5.22-2.42-5.22-6.1V.5c0-.36.15-.5.5-.5h2.43c.36 0 .5.14.5.5V11.9c0 1.67.46 2.95 1.79 2.95s1.76-1.28 1.76-2.94V.5c0-.36.14-.5.5-.5h2.45c.36 0 .5.14.5.5zM72.5 14.3c-.02-.21.02-.43.3-.43h2.25c.21 0 .35.07.4.31.2.69.57 1.12 1.22 1.12.57 0 1.04-.34 1.04-.95.1-1.92-4.8-1.95-5.07-5.76-.16-2.4 1.7-3.9 3.93-3.9 1.83 0 3.9 1.07 3.95 3.7 0 .22-.02.43-.3.43h-2.08c-.21 0-.35-.07-.4-.3-.1-.5-.36-1.1-1.03-1.12a.9.9 0 00-1 .85c-.07 1.76 5.38 2.16 5.29 6.07-.05 2.35-2 3.68-4.26 3.68-2.29 0-3.93-1.33-4.24-3.7z"/></svg>