<svg xmlns="http://www.w3.org/2000/svg" width="47" height="18"><path d="M3.77 1.56c.09-.38.24-.45.6-.45h1.8c.35 0 .5.07.6.45l3.74 15.8c.09.33-.09.44-.33.44H7.85c-.29 0-.44-.09-.53-.45l-.42-1.9c-.07-.27-.16-.32-.45-.32H4.08c-.29 0-.38.04-.44.31l-.42 1.91c-.1.36-.25.45-.54.45H.35c-.24 0-.42-.11-.33-.45l3.75-15.8zm.64 10.72h1.73c.11 0 .2-.09.18-.24l-.9-4.59c-.05-.15-.25-.15-.28 0l-.9 4.59c-.05.15.04.24.17.24zM18.11 6.03v2c0 .34-.13.47-.46.47-1.42 0-2.46.71-2.46 2.45v6.38c0 .34-.13.47-.47.47h-2.08c-.33 0-.47-.13-.47-.47V6.2c0-.34.14-.47.47-.47h1.55c.33 0 .44.16.51.49l.15.69a3.45 3.45 0 012.8-1.34c.33 0 .46.14.46.47zM20.68 13.86V8.52c0-.29-.06-.38-.35-.38h-.44c-.34 0-.47-.13-.47-.46v-1.5c0-.33.13-.46.47-.46h.6c.29 0 .37-.07.37-.38v-1.7c0-.32.14-.46.47-.46h1.84c.33 0 .46.14.46.47v1.69c0 .31.07.38.36.38h1.06c.34 0 .47.13.47.47v1.49c0 .33-.13.46-.47.46h-.97c-.3 0-.38.1-.38.38v5.34c0 .9.4 1.4 1.35 1.4.34 0 .47.14.47.47v1.6c0 .34-.13.47-.47.47-3.04 0-4.37-1.05-4.37-3.94zM26.83 1.78c0-.98.8-1.78 1.81-1.78.98 0 1.78.8 1.78 1.78a1.8 1.8 0 11-3.59 0zm3.32 4.4v11.15c0 .34-.13.47-.46.47H27.6c-.33 0-.46-.13-.46-.47V6.2c0-.34.13-.47.46-.47h2.09c.33 0 .46.13.46.47zM31.84 14.53c-.03-.2.02-.4.28-.4h2.09c.2 0 .33.06.38.29.17.64.53 1.04 1.13 1.04.53 0 .97-.3.97-.89.09-1.8-4.48-1.82-4.72-5.4-.15-2.25 1.57-3.65 3.66-3.65 1.7 0 3.63 1 3.68 3.47 0 .2-.02.4-.29.4h-1.93c-.2 0-.33-.07-.38-.29-.09-.47-.33-1.02-.95-1.05a.83.83 0 00-.93.8c-.07 1.65 5.01 2.03 4.92 5.7-.04 2.2-1.86 3.45-3.97 3.45-2.13 0-3.66-1.25-3.94-3.47zM42.17 13.86V8.52c0-.29-.07-.38-.36-.38h-.44c-.33 0-.47-.13-.47-.46v-1.5c0-.33.14-.46.47-.46h.6c.29 0 .38-.07.38-.38v-1.7c0-.32.13-.46.46-.46h1.84c.34 0 .47.14.47.47v1.69c0 .31.06.38.35.38h1.07c.33 0 .46.13.46.47v1.49c0 .33-.13.46-.47.46h-.97c-.29 0-.38.1-.38.38v5.34c0 .9.4 1.4 1.36 1.4.33 0 .46.14.46.47v1.6c0 .34-.13.47-.46.47-3.04 0-4.37-1.05-4.37-3.94z"/></svg>