<svg xmlns="http://www.w3.org/2000/svg" width="70" height="27"><path d="M5.62 2.34c.13-.57.36-.67.89-.67h2.67c.53 0 .76.1.9.67l5.57 23.7c.14.5-.13.66-.5.66H11.7c-.43 0-.66-.14-.79-.67l-.63-2.87c-.1-.4-.23-.47-.66-.47H6.08c-.43 0-.57.07-.66.47l-.63 2.87c-.13.54-.36.67-.8.67H.54c-.36 0-.63-.17-.5-.67l5.58-23.7zm.95 16.08h2.58c.17 0 .3-.13.26-.36l-1.35-6.88c-.07-.23-.36-.23-.4 0l-1.35 6.88c-.07.23.07.36.26.36zM26.98 9.04v3c0 .51-.2.7-.7.7-2.1 0-3.66 1.08-3.66 3.68V26c0 .5-.2.7-.7.7h-3.1c-.5 0-.7-.2-.7-.7V9.28c0-.5.2-.7.7-.7h2.31c.5 0 .66.23.76.73l.23 1.04c1.16-1.44 2.61-2 4.16-2 .5 0 .7.2.7.7zM30.8 20.8v-8.02c0-.43-.1-.56-.52-.56h-.66c-.5 0-.7-.2-.7-.7V9.28c0-.5.2-.7.7-.7h.9c.42 0 .55-.1.55-.57V5.47c0-.5.2-.7.7-.7h2.74c.5 0 .69.2.69.7v2.54c0 .47.1.57.53.57h1.58c.5 0 .7.2.7.7v2.23c0 .5-.2.7-.7.7h-1.45c-.43 0-.56.14-.56.57v8.01c0 1.34.6 2.1 2.01 2.1.5 0 .7.2.7.7V26c0 .51-.2.7-.7.7-4.52.01-6.5-1.56-6.5-5.9zM39.95 2.67a2.68 2.68 0 015.35 0 2.67 2.67 0 11-5.34 0zm4.96 6.6V26c0 .5-.2.7-.7.7h-3.1c-.5 0-.7-.2-.7-.7V9.28c0-.5.2-.7.7-.7h3.1c.5 0 .7.2.7.7zM47.42 21.8c-.04-.3.03-.6.42-.6h3.1c.3 0 .5.1.57.43.26.97.8 1.56 1.68 1.56.8 0 1.45-.46 1.45-1.33.14-2.7-6.66-2.73-7.03-8.1-.23-3.38 2.35-5.48 5.45-5.48 2.54 0 5.42 1.5 5.48 5.2 0 .3-.03.6-.43.6h-2.87c-.3 0-.5-.1-.56-.43-.14-.7-.5-1.53-1.42-1.57a1.24 1.24 0 00-1.39 1.2c-.1 2.47 7.46 3.04 7.33 8.55-.06 3.3-2.77 5.17-5.9 5.17-3.18 0-5.46-1.87-5.88-5.2zM62.8 20.8v-8.02c0-.43-.1-.56-.52-.56h-.67c-.5 0-.69-.2-.69-.7V9.28c0-.5.2-.7.7-.7h.89c.43 0 .56-.1.56-.57V5.47c0-.5.2-.7.7-.7h2.73c.5 0 .7.2.7.7v2.54c0 .47.1.57.52.57h1.59c.5 0 .69.2.69.7v2.23c0 .5-.2.7-.7.7h-1.45c-.42 0-.56.14-.56.57v8.01c0 1.34.6 2.1 2.02 2.1.5 0 .69.2.69.7V26c0 .51-.2.7-.7.7-4.52.01-6.5-1.56-6.5-5.9z"/></svg>