<?xml version="1.0" encoding="utf-8"?>
<!-- Generator: Adobe Illustrator 16.0.4, SVG Export Plug-In . SVG Version: 6.00 Build 0)  -->
<!DOCTYPE svg PUBLIC "-//W3C//DTD SVG 1.1//EN" "http://www.w3.org/Graphics/SVG/1.1/DTD/svg11.dtd">
<svg version="1.1" id="レイヤー_1" xmlns="http://www.w3.org/2000/svg" xmlns:xlink="http://www.w3.org/1999/xlink" x="0px"
	 y="0px" width="89px" height="24px" viewBox="0 0 89 24" style="enable-background:new 0 0 89 24;" xml:space="preserve">
<g>
	<g>
		<path d="M0,18.24V1.663c0-0.352,0.14-0.492,0.489-0.492h4.632c2.538,0,4.284,1.991,4.284,4.426v0.281
			c0,1.709-0.885,3.043-1.839,3.652c1.396,0.655,2.235,2.293,2.235,4.144v0.352c0,2.67-1.746,4.706-4.61,4.706H0.489
			C0.14,18.731,0,18.592,0,18.24z M4.632,8.055c0.839,0,1.491-0.655,1.491-1.803v-0.28c0-1.147-0.629-1.804-1.491-1.804H3.795
			c-0.35,0-0.442,0.094-0.442,0.539V7.61c0,0.352,0.093,0.445,0.442,0.445H4.632z M4.656,15.734c1.024,0,1.793-0.749,1.793-2.131
			v-0.421c0-1.406-0.746-2.131-1.793-2.131H3.795c-0.35,0-0.442,0.094-0.442,0.443v3.795c0,0.352,0.093,0.444,0.442,0.444H4.656z"/>
		<path d="M11.291,1.874C11.291,0.843,12.129,0,13.199,0c1.024,0,1.862,0.843,1.862,1.874c0,1.053-0.838,1.896-1.862,1.896
			C12.129,3.771,11.291,2.927,11.291,1.874z M14.783,6.509V18.24c0,0.352-0.14,0.491-0.489,0.491h-2.188
			c-0.349,0-0.489-0.14-0.489-0.491V6.509c0-0.35,0.14-0.491,0.489-0.491h2.188C14.643,6.019,14.783,6.159,14.783,6.509z"/>
		<path d="M16.69,13.955v-3.161c0-3.652,2.422-4.986,4.517-4.986c2.096,0,4.517,1.334,4.517,4.986v3.161
			c0,3.652-2.421,4.987-4.517,4.987C19.112,18.942,16.69,17.607,16.69,13.955z M21.207,8.641c-0.628,0-1.35,0.421-1.35,1.639v4.191
			c0,1.218,0.722,1.639,1.35,1.639c0.605,0,1.351-0.421,1.351-1.639v-4.191C22.558,9.062,21.812,8.641,21.207,8.641z"/>
		<path d="M36.665,6.509v12.503c0,3.723-2.118,4.987-4.377,4.987c-1.746,0-3.935-0.797-4.26-3.652
			c-0.023-0.211,0.023-0.422,0.303-0.422h2.234c0.21,0,0.327,0.07,0.396,0.305c0.163,0.516,0.558,0.937,1.188,0.937
			c0.628,0,1.35-0.421,1.35-1.616v-1.732c-0.466,0.492-1.071,0.89-1.816,1.054c-2.049,0.422-4.051-1.076-4.051-3.839v-2.669V9.717
			c0-2.856,2.072-4.237,4.121-3.862c0.931,0.188,1.607,0.725,2.119,1.311l0.139-0.632c0.07-0.352,0.163-0.514,0.513-0.514h1.653
			C36.524,6.019,36.665,6.159,36.665,6.509z M33.499,14.471v-3.325v-0.866c0-1.147-0.675-1.639-1.327-1.639
			c-0.628-0.024-1.374,0.421-1.374,1.639v2.106v2.085c0,1.218,0.745,1.662,1.374,1.639C32.823,16.109,33.499,15.617,33.499,14.471z"
			/>
		<path d="M45.113,6.345v2.107c0,0.352-0.139,0.492-0.489,0.492c-1.489,0-2.583,0.75-2.583,2.576v6.72
			c0,0.352-0.14,0.491-0.489,0.491h-2.188c-0.35,0-0.489-0.14-0.489-0.491V6.509c0-0.35,0.139-0.491,0.489-0.491h1.629
			c0.35,0,0.466,0.163,0.536,0.514l0.163,0.727c0.815-1.008,1.839-1.405,2.933-1.405C44.974,5.854,45.113,5.994,45.113,6.345z"/>
		<path d="M46.347,15.033c0-3.513,3.026-4.146,5.728-4.379V9.858c0-0.937-0.582-1.381-1.257-1.381s-1.096,0.421-1.211,1.101
			c-0.047,0.235-0.187,0.304-0.396,0.304h-2.025c-0.28,0-0.303-0.211-0.303-0.421c0.047-2.646,2.072-3.652,4.145-3.652
			c2.095,0,4.214,1.241,4.214,4.589v5.409c0,1.357,0.092,1.779,0.232,2.457c0.069,0.352-0.117,0.469-0.466,0.469h-2.072
			c-0.351,0-0.444-0.117-0.537-0.818c-0.488,0.514-1.185,0.843-1.907,0.982C48.443,19.294,46.347,17.889,46.347,15.033z
			 M52.075,14.471v-1.991c-1.583,0.213-2.607,0.656-2.562,2.178c0.047,1.007,0.653,1.499,1.305,1.452
			C51.446,16.086,52.075,15.617,52.075,14.471z"/>
		<path d="M66.507,9.717v2.669v2.647c0,2.763-2.002,4.261-4.05,3.839c-0.746-0.164-1.351-0.562-1.817-1.054v5.479
			c0,0.351-0.139,0.491-0.488,0.491h-2.188c-0.35,0-0.488-0.141-0.488-0.491V6.509c0-0.35,0.139-0.491,0.488-0.491h1.629
			c0.35,0,0.467,0.163,0.536,0.514l0.187,0.773c0.488-0.632,1.188-1.217,2.143-1.428C64.505,5.456,66.507,6.954,66.507,9.717z
			 M61.967,8.641c-0.651,0-1.327,0.491-1.327,1.639v3.324v0.867c0,1.146,0.676,1.639,1.327,1.639
			c0.63,0.023,1.374-0.421,1.374-1.639v-4.191C63.341,9.062,62.597,8.617,61.967,8.641z"/>
		<path d="M77.635,9.717v8.523c0,0.352-0.141,0.491-0.49,0.491h-2.188c-0.348,0-0.487-0.14-0.487-0.491v-7.961
			c0-1.218-0.746-1.663-1.377-1.639c-0.649,0-1.325,0.491-1.325,1.639v7.961c0,0.352-0.139,0.491-0.488,0.491H69.09
			c-0.349,0-0.489-0.14-0.489-0.491V1.663c0-0.352,0.141-0.492,0.489-0.492h2.188c0.35,0,0.488,0.141,0.488,0.492v5.268
			c0.466-0.492,1.072-0.889,1.816-1.053C75.634,5.456,77.635,6.954,77.635,9.717z"/>
		<path d="M79.635,23.298v-1.874c0-0.351,0.139-0.468,0.489-0.491c0.745-0.069,1.56-0.187,1.839-1.123
			c0.465-1.476,0.465-1.663,0.232-2.389L78.797,6.486c-0.094-0.305,0.046-0.467,0.303-0.467h2.351c0.303,0,0.466,0.163,0.536,0.467
			l1.77,6.675c0.045,0.161,0.231,0.161,0.278,0l1.747-6.675c0.093-0.305,0.232-0.467,0.535-0.467h2.352
			c0.256,0,0.396,0.163,0.303,0.467l-4.68,14.845c-0.653,1.989-2.515,2.458-4.167,2.458C79.774,23.789,79.635,23.602,79.635,23.298z
			"/>
	</g>
</g>
</svg>
