<svg xmlns="http://www.w3.org/2000/svg" width="97" height="18"><path d="M0 11.96V6.02C0 2.39 1.64 0 5.13 0c3.26 0 4.88 2.18 4.93 4.75.02.24-.02.42-.3.42H7.2c-.26 0-.38-.09-.4-.35-.14-.84-.59-1.7-1.67-1.7-1.3 0-1.75 1.26-1.75 2.9v5.94c0 1.64.44 2.9 1.75 2.9 1.08 0 1.53-.86 1.67-1.7.02-.26.14-.36.4-.36h2.55c.29 0 .33.2.3.43-.04 2.57-1.66 4.75-4.92 4.75-3.49 0-5.13-2.39-5.13-6.02zM12.05 13V9.82c0-3.65 2.44-4.98 4.55-4.98s4.55 1.33 4.55 4.98V13c0 3.65-2.44 4.99-4.55 4.99s-4.55-1.33-4.55-4.99zm4.55-5.32c-.63 0-1.36.42-1.36 1.64v4.19c0 1.22.73 1.64 1.36 1.64.61 0 1.36-.42 1.36-1.64V9.3c0-1.2-.75-1.63-1.36-1.63zM32.26 8.76v8.52c0 .35-.14.49-.49.49h-2.2c-.36 0-.5-.14-.5-.5V9.33c0-1.22-.75-1.67-1.38-1.64-.66 0-1.34.5-1.34 1.64v7.96c0 .35-.14.49-.49.49h-2.2c-.36 0-.5-.14-.5-.5V5.56c0-.35.14-.5.5-.5h1.64c.35 0 .47.17.54.52l.18.77c.5-.63 1.2-1.21 2.16-1.42 2.07-.42 4.08 1.07 4.08 3.84zM35.26 13.63V8c0-.3-.07-.4-.37-.4h-.47c-.35 0-.5-.14-.5-.5V5.56c0-.35.15-.5.5-.5h.63c.3 0 .4-.06.4-.4V2.89c0-.35.14-.5.5-.5h1.94c.35 0 .5.15.5.5v1.78c0 .33.06.4.37.4h1.12c.35 0 .5.14.5.49v1.57c0 .35-.15.49-.5.49h-1.03c-.3 0-.4.1-.4.4v5.62c0 .93.42 1.47 1.43 1.47.35 0 .5.14.5.5v1.68c0 .35-.15.49-.5.49-3.21 0-4.62-1.1-4.62-4.14zM41.95 14.07c0-3.51 3.04-4.14 5.76-4.38v-.8c0-.93-.58-1.37-1.26-1.37s-1.1.42-1.22 1.1c-.05.23-.19.3-.4.3h-2.04c-.28 0-.3-.21-.3-.42.04-2.65 2.08-3.65 4.17-3.65 2.11 0 4.24 1.24 4.24 4.59v5.4c0 1.36.1 1.78.24 2.46.07.35-.12.47-.47.47h-2.09c-.35 0-.44-.12-.54-.82-.49.52-1.2.85-1.92.98-2.06.4-4.17-1-4.17-3.86zm5.76-.56v-1.99c-1.6.21-2.62.66-2.58 2.18.05 1 .66 1.5 1.32 1.45.63-.03 1.26-.5 1.26-1.64zM61.43 14.33c-.33 2.85-2.37 3.65-4.13 3.65-2.27 0-4.4-1.26-4.4-4.99V9.83c0-3.72 2.13-4.98 4.4-4.98 1.76 0 3.8.8 4.13 3.65.02.2-.02.42-.3.42h-2.1c-.2 0-.32-.07-.39-.3-.16-.52-.56-.94-1.2-.94-.63 0-1.36.42-1.36 1.61v4.24c0 1.2.73 1.62 1.36 1.62.64 0 1.04-.42 1.2-.94.07-.23.19-.3.4-.3h2.08c.29 0 .33.2.3.42zM64.36 13.63V8c0-.3-.07-.4-.38-.4h-.46c-.36 0-.5-.14-.5-.5V5.56c0-.35.14-.5.5-.5h.63c.3 0 .4-.06.4-.4V2.89c0-.35.14-.5.49-.5h1.94c.36 0 .5.15.5.5v1.78c0 .33.07.4.37.4h1.13c.35 0 .49.14.49.49v1.57c0 .35-.14.49-.5.49h-1.02c-.3 0-.4.1-.4.4v5.62c0 .93.42 1.47 1.43 1.47.35 0 .5.14.5.5v1.68c0 .35-.15.49-.5.49-3.21 0-4.62-1.1-4.62-4.14zM86.78.7v11.26c0 3.63-1.67 6.02-5.14 6.02-3.5 0-5.13-2.39-5.13-6.02V.7c0-.35.14-.49.49-.49h2.39c.35 0 .5.14.5.5v11.25c0 1.64.44 2.9 1.75 2.9s1.73-1.26 1.73-2.9V.7c0-.35.14-.49.5-.49h2.41c.36 0 .5.14.5.5zM88.63 14.33c-.03-.21.02-.42.3-.42h2.2c.22 0 .36.07.4.3.2.68.57 1.1 1.2 1.1.56 0 1.03-.33 1.03-.93.1-1.9-4.74-1.92-5-5.7-.16-2.36 1.67-3.83 3.88-3.83 1.8 0 3.84 1.05 3.89 3.65 0 .2-.02.42-.3.42h-2.05c-.2 0-.35-.07-.4-.3-.09-.5-.35-1.08-1-1.1a.88.88 0 00-.99.84c-.07 1.73 5.3 2.13 5.2 6-.04 2.31-1.96 3.62-4.19 3.62-2.25 0-3.87-1.31-4.17-3.65z"/></svg>