<svg xmlns="http://www.w3.org/2000/svg" width="145" height="27"><path d="M0 17.95V9.03C0 3.58 2.45 0 7.68 0c4.87 0 7.29 3.27 7.36 7.13.03.35-.04.63-.46.63h-3.82c-.39 0-.56-.14-.6-.53-.2-1.26-.87-2.56-2.48-2.56-1.97 0-2.63 1.9-2.63 4.36v8.92c0 2.45.66 4.35 2.63 4.35 1.6 0 2.28-1.3 2.48-2.56.04-.39.21-.53.6-.53h3.82c.42 0 .5.28.46.63-.07 3.86-2.5 7.13-7.36 7.13C2.45 26.97 0 23.4 0 17.95zM18.02 19.5v-4.75c0-5.48 3.64-7.48 6.8-7.48s6.8 2 6.8 7.48v4.74c0 5.48-3.65 7.48-6.8 7.48s-6.8-2-6.8-7.48zm6.8-7.98c-.95 0-2.04.63-2.04 2.46v6.28c0 1.83 1.09 2.46 2.04 2.46.9 0 2.03-.63 2.03-2.46v-6.28c0-1.83-1.12-2.46-2.04-2.46zM48.23 13.13v12.79c0 .52-.21.73-.74.73h-3.3c-.52 0-.73-.2-.73-.73V13.98c0-1.83-1.12-2.5-2.07-2.46-.98 0-2 .74-2 2.46v11.94c0 .52-.2.73-.73.73h-3.3c-.52 0-.73-.2-.73-.73V8.32c0-.52.2-.73.73-.73h2.46c.52 0 .7.24.8.77l.28 1.16a5.63 5.63 0 013.23-2.14c3.08-.64 6.1 1.61 6.1 5.75zM52.71 20.44V12c0-.46-.1-.6-.56-.6h-.7c-.53 0-.74-.2-.74-.74V8.32c0-.52.22-.73.74-.73h.95c.45 0 .6-.11.6-.6V4.32c0-.53.2-.74.73-.74h2.9c.53 0 .74.21.74.74v2.67c0 .49.1.6.56.6h1.69c.52 0 .73.2.73.73v2.36c0 .52-.2.73-.73.73h-1.54c-.46 0-.6.14-.6.6v8.43c0 1.4.63 2.21 2.14 2.21.52 0 .73.21.73.74v2.53c0 .52-.2.73-.73.73-4.8 0-6.9-1.64-6.9-6.21zM62.7 21.1c0-5.26 4.56-6.21 8.62-6.56v-1.2c0-1.4-.87-2.07-1.89-2.07s-1.65.64-1.82 1.65c-.07.36-.28.46-.6.46h-3.05c-.42 0-.45-.32-.45-.63.07-3.97 3.12-5.48 6.24-5.48 3.15 0 6.34 1.86 6.34 6.88v8.12c0 2.03.14 2.66.35 3.68.1.53-.17.7-.7.7h-3.12c-.52 0-.66-.17-.8-1.22a5.4 5.4 0 01-2.88 1.47c-3.08.6-6.24-1.51-6.24-5.8zm8.62-.84v-2.98c-2.38.31-3.92.98-3.85 3.26.07 1.51.98 2.25 1.96 2.18.95-.03 1.9-.74 1.9-2.46zM91.83 21.5c-.5 4.28-3.54 5.47-6.17 5.47-3.4 0-6.6-1.9-6.6-7.48v-4.74c0-5.58 3.2-7.48 6.6-7.48 2.63 0 5.68 1.2 6.17 5.48.03.31-.04.63-.46.63h-3.12c-.31 0-.49-.1-.6-.46-.24-.77-.83-1.4-1.78-1.4-.95 0-2.03.63-2.03 2.42v6.36c0 1.8 1.08 2.42 2.03 2.42.95 0 1.54-.63 1.79-1.4.1-.35.28-.46.6-.46h3.11c.42 0 .5.32.46.63zM96.2 20.44V12c0-.46-.1-.6-.55-.6h-.7c-.53 0-.74-.2-.74-.74V8.32c0-.52.21-.73.74-.73h.94c.46 0 .6-.11.6-.6V4.32c0-.53.2-.74.73-.74h2.91c.53 0 .74.21.74.74v2.67c0 .49.1.6.56.6h1.68c.53 0 .74.2.74.73v2.36c0 .52-.21.73-.74.73h-1.54c-.46 0-.6.14-.6.6v8.43c0 1.4.64 2.21 2.14 2.21.53 0 .74.21.74.74v2.53c0 .52-.21.73-.74.73-4.8 0-6.9-1.64-6.9-6.21zM129.72 1.05v16.9c0 5.44-2.5 9.02-7.68 9.02-5.22 0-7.68-3.58-7.68-9.02V1.06c0-.53.21-.74.74-.74h3.57c.53 0 .74.2.74.73v16.9c0 2.45.67 4.35 2.63 4.35s2.6-1.9 2.6-4.35V1.05c0-.52.2-.73.73-.73h3.6c.54 0 .75.2.75.73zM132.48 21.5c-.03-.32.04-.64.46-.64h3.3c.3 0 .52.1.59.46.28 1.02.84 1.65 1.79 1.65.84 0 1.54-.5 1.54-1.4.14-2.85-7.08-2.89-7.47-8.54-.24-3.55 2.5-5.76 5.79-5.76 2.7 0 5.75 1.58 5.82 5.48 0 .31-.04.63-.46.63h-3.05c-.32 0-.53-.1-.6-.46-.14-.73-.52-1.61-1.5-1.65a1.32 1.32 0 00-1.48 1.27c-.1 2.6 7.93 3.2 7.79 8.99-.08 3.48-2.95 5.44-6.28 5.44-3.36 0-5.78-1.96-6.24-5.48z"/></svg>