<?xml version="1.0" encoding="utf-8"?>
<!-- Generator: Adobe Illustrator 16.0.4, SVG Export Plug-In . SVG Version: 6.00 Build 0)  -->
<!DOCTYPE svg PUBLIC "-//W3C//DTD SVG 1.1//EN" "http://www.w3.org/Graphics/SVG/1.1/DTD/svg11.dtd">
<svg version="1.1" id="レイヤー_1" xmlns="http://www.w3.org/2000/svg" xmlns:xlink="http://www.w3.org/1999/xlink" x="0px"
	 y="0px" width="167.036px" height="27.645px" viewBox="0 0 167.036 27.645" style="enable-background:new 0 0 167.036 27.645;"
	 xml:space="preserve">
<g>
	<g>
		<path d="M15.514,12.274v7.631c0,4.319-2.556,7.739-7.631,7.739C2.52,27.645,0,23.973,0,18.394V9.251C0,3.671,2.52,0,7.883,0
			c5.003,0,7.487,3.348,7.595,7.307c0,0.36-0.036,0.648-0.468,0.648h-3.959c-0.396,0-0.576-0.145-0.648-0.54
			c-0.18-1.296-0.864-2.628-2.52-2.628c-2.016,0-2.7,1.943-2.7,4.464v9.143c0,2.52,0.792,4.463,2.771,4.463
			c1.656,0,2.664-1.331,2.664-3.275v-3.203c0-0.576-0.144-0.72-0.72-0.72H8.315c-0.54,0-0.72-0.181-0.72-0.721v-2.663
			c0-0.54,0.18-0.72,0.72-0.72h6.479C15.334,11.555,15.514,11.734,15.514,12.274z"/>
		<path d="M34.738,27.32h-4.031c-0.468,0-0.72-0.144-0.864-0.504l-3.42-8.783h-1.404c-0.54,0-0.684,0.145-0.684,0.685v7.847
			c0,0.54-0.216,0.756-0.756,0.756h-3.671c-0.54,0-0.756-0.216-0.756-0.756V1.08c0-0.54,0.216-0.757,0.756-0.757h6.803
			c4.211,0,7.379,3.24,7.379,8.172v1.367c0,2.988-1.152,5.363-3.023,6.768l4.031,9.971C35.278,27.032,35.134,27.32,34.738,27.32z
			 M25.019,13.174h1.152c1.44,0,2.736-1.115,2.736-3.527V8.459c0-2.412-1.296-3.528-2.736-3.528h-1.152
			c-0.54,0-0.684,0.145-0.684,0.685v6.875C24.335,13.03,24.479,13.174,25.019,13.174z"/>
		<path d="M42.767,1.044c0.144-0.612,0.396-0.721,0.972-0.721h2.916c0.576,0,0.828,0.108,0.972,0.721l6.083,25.557
			c0.144,0.54-0.144,0.72-0.54,0.72H49.39c-0.468,0-0.72-0.144-0.864-0.72l-0.684-3.096c-0.108-0.432-0.252-0.504-0.72-0.504h-3.852
			c-0.468,0-0.612,0.072-0.72,0.504l-0.684,3.096c-0.144,0.576-0.396,0.72-0.864,0.72h-3.779c-0.396,0-0.684-0.18-0.54-0.72
			L42.767,1.044z M43.811,18.394h2.808c0.18,0,0.324-0.145,0.288-0.396l-1.476-7.415c-0.072-0.252-0.396-0.252-0.432,0l-1.476,7.415
			C43.451,18.249,43.595,18.394,43.811,18.394z"/>
		<path d="M72.682,1.08v25.484c0,0.54-0.216,0.756-0.756,0.756h-2.771c-0.612,0-0.828-0.216-1.08-0.756L62.062,13.21
			c-0.108-0.252-0.396-0.216-0.396,0.036v13.318c0,0.54-0.216,0.756-0.756,0.756h-3.672c-0.54,0-0.756-0.216-0.756-0.756V1.08
			c0-0.54,0.216-0.757,0.756-0.757h2.772c0.576,0,0.828,0.217,1.043,0.757l6.011,13.354c0.108,0.252,0.396,0.217,0.396-0.036V1.08
			c0-0.54,0.216-0.757,0.756-0.757h3.708C72.465,0.323,72.682,0.54,72.682,1.08z"/>
		<path d="M92.266,9.719v8.207c0,5.723-2.556,9.395-8.351,9.395h-6.695c-0.54,0-0.756-0.216-0.756-0.756V1.08
			c0-0.54,0.216-0.757,0.756-0.757h6.695C89.71,0.323,92.266,3.995,92.266,9.719z M87.082,9.503c0-2.628-0.684-4.572-3.419-4.572
			h-1.332c-0.54,0-0.684,0.145-0.684,0.685v16.414c0,0.54,0.144,0.684,0.684,0.684h1.332c2.735,0,3.419-1.943,3.419-4.571V9.503z"/>
		<path d="M103.39,27.645c-4.355,0-7.739-2.916-7.775-7.523c0-0.359,0.036-0.647,0.468-0.647h3.672c0.396,0,0.611,0.144,0.647,0.54
			c0.144,1.367,0.972,3.239,3.023,3.239c1.476,0,2.483-0.972,2.556-2.412c0.504-4.679-9.971-6.839-9.971-14.146
			c0-3.816,2.736-6.695,7.127-6.695c4.68,0,7.055,3.131,7.127,7.055c0.037,0.36-0.035,0.648-0.467,0.648h-3.672
			c-0.396,0-0.576-0.145-0.612-0.54c-0.216-1.224-0.756-2.736-2.231-2.736c-1.368,0-2.16,1.08-2.016,2.304
			c0.504,3.636,9.971,6.588,9.971,13.787C111.237,25.448,106.882,27.645,103.39,27.645z"/>
		<path d="M125.997,23.469v3.096c0,0.54-0.216,0.756-0.756,0.756h-9.719c-0.54,0-0.756-0.216-0.756-0.756V1.08
			c0-0.54,0.216-0.757,0.756-0.757h3.672c0.539,0,0.756,0.217,0.756,0.757v20.949c0,0.54,0.144,0.684,0.684,0.684h4.607
			C125.781,22.713,125.997,22.929,125.997,23.469z"/>
		<path d="M133.882,1.044c0.145-0.612,0.396-0.721,0.972-0.721h2.915c0.576,0,0.828,0.108,0.973,0.721l6.083,25.557
			c0.144,0.54-0.144,0.72-0.54,0.72h-3.779c-0.468,0-0.72-0.144-0.863-0.72l-0.685-3.096c-0.108-0.432-0.252-0.504-0.72-0.504
			h-3.852c-0.469,0-0.611,0.072-0.721,0.504l-0.684,3.096c-0.144,0.576-0.396,0.72-0.863,0.72h-3.779
			c-0.396,0-0.685-0.18-0.541-0.72L133.882,1.044z M134.926,18.394h2.808c0.18,0,0.324-0.145,0.287-0.396l-1.475-7.415
			c-0.072-0.252-0.396-0.252-0.433,0l-1.476,7.415C134.565,18.249,134.71,18.394,134.926,18.394z"/>
		<path d="M147.599,26.564V1.08c0-0.54,0.215-0.757,0.756-0.757h2.52c0.539,0,0.72,0.36,0.828,0.757l5.398,16.054
			c0.072,0.216,0.36,0.216,0.432,0l5.4-16.054c0.144-0.396,0.287-0.757,0.828-0.757h2.52c0.539,0,0.756,0.217,0.756,0.757v25.484
			c0,0.54-0.217,0.756-0.756,0.756h-3.672c-0.54,0-0.756-0.216-0.756-0.756v-9.611c0-0.287-0.324-0.323-0.432-0.071l-3.096,9.719
			c-0.18,0.504-0.36,0.72-0.936,0.72h-0.145c-0.576,0-0.756-0.216-0.936-0.72l-3.096-9.719c-0.072-0.252-0.432-0.216-0.432,0.071
			v9.611c0,0.54-0.217,0.756-0.757,0.756h-3.671C147.813,27.32,147.599,27.104,147.599,26.564z"/>
	</g>
</g>
</svg>
