<?xml version="1.0" encoding="utf-8"?>
<!-- Generator: Adobe Illustrator 16.0.4, SVG Export Plug-In . SVG Version: 6.00 Build 0)  -->
<!DOCTYPE svg PUBLIC "-//W3C//DTD SVG 1.1//EN" "http://www.w3.org/Graphics/SVG/1.1/DTD/svg11.dtd">
<svg version="1.1" id="レイヤー_1" xmlns="http://www.w3.org/2000/svg" xmlns:xlink="http://www.w3.org/1999/xlink" x="0px"
	 y="0px" width="105px" height="18px" viewBox="0 0 105 18" style="enable-background:new 0 0 105 18;" xml:space="preserve">
<g>
	<g>
		<path d="M3.236,17.293L0.02,0.474C-0.051,0.095,0.067,0,0.351,0h2.506c0.308,0,0.497,0.095,0.568,0.474l1.442,8.812
			c0.023,0.166,0.237,0.19,0.284,0.024l1.845-8.836C7.066,0.071,7.232,0,7.611,0h1.182c0.378,0,0.52,0.071,0.615,0.474l1.82,8.836
			c0.047,0.166,0.26,0.142,0.284-0.024l1.466-8.812C13.026,0.095,13.239,0,13.546,0h2.507c0.26,0,0.402,0.095,0.332,0.474
			l-3.241,16.819c-0.07,0.402-0.212,0.474-0.614,0.474h-1.584c-0.378,0-0.544-0.094-0.614-0.474L8.344,7.841
			c-0.048-0.166-0.26-0.166-0.284,0l-1.986,9.452c-0.095,0.38-0.236,0.474-0.615,0.474H3.851
			C3.449,17.767,3.307,17.695,3.236,17.293z"/>
		<path d="M27.354,8.646v8.623c0,0.355-0.142,0.497-0.497,0.497h-2.223c-0.355,0-0.497-0.142-0.497-0.497V9.215
			c0-1.231-0.757-1.682-1.396-1.658c-0.662,0-1.348,0.498-1.348,1.658v8.055c0,0.355-0.143,0.497-0.497,0.497h-2.223
			c-0.354,0-0.496-0.142-0.496-0.497V0.498C18.179,0.143,18.321,0,18.675,0h2.223c0.354,0,0.497,0.143,0.497,0.498v5.33
			c0.473-0.499,1.088-0.9,1.844-1.066C25.32,4.335,27.354,5.851,27.354,8.646z"/>
		<path d="M29.245,14.024c0-3.554,3.074-4.193,5.817-4.43V8.789c0-0.948-0.591-1.397-1.277-1.397c-0.686,0-1.111,0.426-1.229,1.113
			c-0.047,0.237-0.189,0.308-0.402,0.308h-2.058c-0.284,0-0.307-0.213-0.307-0.426c0.047-2.677,2.105-3.695,4.209-3.695
			c2.128,0,4.28,1.256,4.28,4.642v5.473c0,1.374,0.094,1.801,0.236,2.487c0.071,0.355-0.118,0.474-0.473,0.474h-2.104
			c-0.354,0-0.449-0.118-0.543-0.828c-0.497,0.52-1.207,0.853-1.939,0.994C31.373,18.336,29.245,16.914,29.245,14.024z
			 M35.062,13.456v-2.014c-1.608,0.213-2.648,0.663-2.602,2.202c0.047,1.019,0.662,1.517,1.324,1.469
			C34.423,15.091,35.062,14.616,35.062,13.456z"/>
		<path d="M41.304,13.574V7.889c0-0.309-0.071-0.403-0.378-0.403h-0.473c-0.355,0-0.497-0.142-0.497-0.498V5.401
			c0-0.354,0.142-0.497,0.497-0.497h0.638c0.308,0,0.402-0.071,0.402-0.403v-1.8c0-0.355,0.142-0.498,0.497-0.498h1.963
			c0.354,0,0.496,0.143,0.496,0.498v1.8c0,0.332,0.071,0.403,0.378,0.403h1.135c0.354,0,0.497,0.143,0.497,0.497v1.587
			c0,0.356-0.143,0.498-0.497,0.498h-1.041c-0.307,0-0.402,0.094-0.402,0.403v5.686c0,0.947,0.426,1.492,1.443,1.492
			c0.354,0,0.497,0.143,0.497,0.497v1.706c0,0.355-0.143,0.497-0.497,0.497C42.723,17.767,41.304,16.653,41.304,13.574z"/>
		<path d="M48.185,0.474C48.161,0.095,48.303,0,48.657,0h1.679c0.355,0,0.497,0.095,0.474,0.474L50.62,5.378
			c-0.024,0.332-0.095,0.473-0.45,0.473h-1.348c-0.354,0-0.425-0.142-0.449-0.473L48.185,0.474z"/>
		<path d="M52.085,14.284c-0.023-0.213,0.023-0.426,0.307-0.426h2.223c0.213,0,0.355,0.07,0.402,0.308
			c0.189,0.688,0.567,1.113,1.206,1.113c0.567,0,1.04-0.332,1.04-0.947c0.095-1.919-4.776-1.942-5.037-5.756
			c-0.165-2.393,1.679-3.885,3.902-3.885c1.821,0,3.878,1.066,3.926,3.695c0,0.213-0.024,0.426-0.308,0.426h-2.058
			c-0.212,0-0.354-0.07-0.401-0.308c-0.095-0.497-0.355-1.09-1.018-1.113c-0.591-0.047-0.969,0.378-0.993,0.853
			c-0.071,1.753,5.345,2.155,5.25,6.064c-0.047,2.345-1.986,3.671-4.233,3.671C54.024,17.979,52.393,16.653,52.085,14.284z"/>
		<path d="M78.355,0.498V17.27c0,0.355-0.142,0.497-0.496,0.497h-1.821c-0.401,0-0.544-0.142-0.709-0.497L71.38,8.48
			c-0.07-0.166-0.261-0.142-0.261,0.024v8.765c0,0.355-0.141,0.497-0.496,0.497h-2.411c-0.355,0-0.498-0.142-0.498-0.497V0.498
			C67.714,0.143,67.856,0,68.212,0h1.819c0.38,0,0.545,0.143,0.687,0.498l3.949,8.788c0.071,0.166,0.26,0.143,0.26-0.024V0.498
			C74.927,0.143,75.069,0,75.424,0h2.436C78.214,0,78.355,0.143,78.355,0.498z"/>
		<path d="M89.42,9.712v0.403c0,0.474-0.023,0.734-0.07,1.209c-0.047,0.354-0.141,0.497-0.496,0.497h-4.966
			c-0.188,0-0.236,0.047-0.236,0.237v1.42c0,1.209,0.756,1.635,1.395,1.635c0.662,0,1.088-0.426,1.253-0.947
			c0.071-0.237,0.19-0.308,0.402-0.308H88.9c0.284,0,0.332,0.213,0.309,0.426c-0.332,2.891-2.413,3.695-4.163,3.695
			c-2.176,0-4.541-1.278-4.541-5.566v-2.18c0-4.264,2.365-5.542,4.541-5.542C87.032,4.691,89.42,5.757,89.42,9.712z M85.141,7.392
			c-0.615,0-1.489,0.426-1.489,1.657v0.356c0,0.189,0.048,0.236,0.236,0.236h2.506c0.189,0,0.236-0.047,0.236-0.236V9.049
			C86.63,7.817,85.779,7.392,85.141,7.392z"/>
		<path d="M104.979,5.378l-2.933,11.915c-0.094,0.38-0.236,0.474-0.614,0.474h-1.537c-0.379,0-0.545-0.118-0.615-0.474l-1.395-5.377
			c-0.047-0.166-0.237-0.166-0.284,0l-1.371,5.377c-0.095,0.355-0.237,0.474-0.614,0.474h-1.562c-0.378,0-0.521-0.094-0.615-0.474
			L90.507,5.378c-0.071-0.309,0.049-0.474,0.309-0.474h2.388c0.309,0,0.474,0.166,0.544,0.474L95,11.181
			c0.024,0.166,0.237,0.166,0.284,0l1.324-5.803c0.072-0.355,0.237-0.474,0.614-0.474h1.064c0.38,0,0.521,0.119,0.615,0.474
			l1.302,5.803c0.046,0.166,0.259,0.166,0.282,0l1.254-5.803c0.07-0.309,0.237-0.474,0.544-0.474h2.388
			C104.933,4.904,105.051,5.069,104.979,5.378z"/>
	</g>
</g>
</svg>
