<svg xmlns="http://www.w3.org/2000/svg" width="160" height="27"><path d="M4.93 25.94L.03.7C-.07.14.1 0 .53 0h3.82c.47 0 .76.14.87.71l2.2 13.22c.03.25.36.28.43.03L10.66.71c.1-.6.36-.71.94-.71h1.8c.58 0 .8.1.94.71l2.77 13.25c.07.25.4.22.43-.03L19.78.7c.07-.57.4-.71.86-.71h3.82c.4 0 .62.14.5.71l-4.93 25.23c-.1.6-.32.71-.94.71h-2.41c-.58 0-.83-.14-.94-.71l-3.02-14.18c-.08-.25-.4-.25-.44 0L9.26 25.94c-.15.57-.36.71-.94.71H5.87c-.61 0-.83-.1-.94-.71zM41.68 12.97V25.9c0 .54-.21.75-.75.75h-3.4c-.53 0-.75-.21-.75-.75V13.82c0-1.85-1.15-2.52-2.13-2.49-1 0-2.05.75-2.05 2.5V25.9c0 .54-.22.75-.76.75h-3.38c-.55 0-.76-.21-.76-.75V.75c0-.54.22-.75.76-.75h3.38c.54 0 .76.21.76.75v8a5.5 5.5 0 012.81-1.6c3.17-.65 6.27 1.63 6.27 5.82zM44.56 21.04c0-5.33 4.69-6.3 8.87-6.65v-1.2c0-1.43-.9-2.1-1.95-2.1s-1.69.64-1.87 1.67c-.07.35-.29.46-.61.46h-3.14c-.43 0-.47-.32-.47-.64.07-4.02 3.21-5.54 6.42-5.54 3.24 0 6.52 1.88 6.52 6.96v8.2c0 2.07.14 2.7.36 3.74.1.53-.18.7-.72.7h-3.2c-.55 0-.7-.17-.84-1.23a5.56 5.56 0 01-2.95 1.49c-3.17.6-6.42-1.53-6.42-5.86zm8.87-.86v-3.02c-2.45.32-4.04 1-3.97 3.3.07 1.53 1.01 2.28 2.02 2.21.97-.03 1.95-.75 1.95-2.49zM62.94 20.36v-8.53c0-.46-.1-.6-.58-.6h-.72c-.54 0-.75-.21-.75-.75V8.1c0-.53.21-.74.75-.74h.98c.46 0 .6-.11.6-.6v-2.7c0-.54.22-.76.77-.76h2.99c.54 0 .75.22.75.75v2.7c0 .5.11.6.58.6h1.73c.54 0 .75.22.75.75v2.38c0 .54-.21.75-.75.75h-1.59c-.47 0-.61.14-.61.6v8.53c0 1.42.65 2.24 2.2 2.24.54 0 .75.21.75.75v2.55c0 .54-.21.75-.75.75-4.94 0-7.1-1.67-7.1-6.29zM73.42.71c-.03-.57.19-.71.72-.71h2.56c.54 0 .76.14.73.71l-.3 7.36c-.03.5-.14.7-.68.7H74.4c-.54 0-.65-.2-.69-.7L73.43.7zM79.37 21.43c-.04-.33.03-.64.47-.64h3.38c.33 0 .55.1.62.46.28 1.03.86 1.67 1.83 1.67.87 0 1.59-.5 1.59-1.42.14-2.88-7.28-2.92-7.68-8.64-.25-3.59 2.56-5.82 5.95-5.82 2.77 0 5.9 1.6 5.98 5.54 0 .32-.04.64-.47.64H87.9c-.32 0-.54-.1-.6-.47-.15-.74-.55-1.63-1.56-1.66-.9-.07-1.48.56-1.51 1.28-.1 2.62 8.14 3.23 8 9.1-.07 3.5-3.03 5.5-6.45 5.5-3.46 0-5.94-2-6.41-5.54zM119.4.75V25.9c0 .54-.22.75-.76.75h-2.77c-.61 0-.83-.21-1.08-.75l-6.02-13.18c-.1-.25-.4-.21-.4.04V25.9c0 .54-.21.75-.75.75h-3.68c-.54 0-.76-.22-.76-.75V.75c0-.54.22-.75.76-.75h2.77c.58 0 .83.21 1.05.75l6.02 13.18c.1.25.4.21.4-.04V.75c0-.54.21-.75.75-.75h3.71c.54 0 .76.21.76.75zM136.26 14.57v.6c0 .71-.04 1.1-.1 1.81-.08.54-.22.75-.76.75h-7.57c-.29 0-.36.07-.36.36v2.13c0 1.8 1.15 2.45 2.13 2.45 1 0 1.65-.64 1.9-1.42.11-.36.3-.47.62-.47h3.35c.43 0 .5.32.47.64-.5 4.34-3.68 5.54-6.34 5.54-3.32 0-6.92-1.91-6.92-8.34v-3.27c0-6.4 3.6-8.32 6.92-8.32 3.02 0 6.66 1.6 6.66 7.54zm-6.52-3.48c-.94 0-2.27.64-2.27 2.48v.54c0 .28.07.35.36.35h3.82c.28 0 .36-.07.36-.35v-.54c0-1.85-1.3-2.48-2.27-2.48zM159.97 8.07l-4.47 17.87c-.14.57-.36.71-.94.71h-2.34c-.58 0-.83-.18-.94-.71l-2.12-8.07c-.07-.24-.36-.24-.43 0l-2.1 8.07c-.14.53-.35.71-.93.71h-2.38c-.58 0-.8-.14-.94-.71l-4.47-17.87c-.1-.47.08-.72.48-.72h3.63c.48 0 .73.25.83.72l1.91 8.7c.04.25.36.25.43 0l2.02-8.7c.11-.54.36-.72.94-.72h1.62c.58 0 .8.18.94.72l1.98 8.7c.07.25.4.25.43 0l1.9-8.7c.12-.47.37-.72.84-.72h3.64c.4 0 .58.25.47.72z"/></svg>