<svg xmlns="http://www.w3.org/2000/svg" width="105" height="18"><path d="M3.24 17.3L.02.46C-.05.1.07 0 .35 0h2.5c.31 0 .5.1.57.47L4.88 9.3c.02.16.23.19.28.02L7 .47c.07-.4.23-.47.61-.47H8.8c.38 0 .52.07.62.47l1.82 8.84c.04.17.26.14.28-.02L12.98.47c.05-.38.26-.47.57-.47h2.5c.26 0 .4.1.34.47L13.14 17.3c-.07.4-.2.48-.61.48h-1.58c-.38 0-.55-.1-.62-.48L8.34 7.84c-.04-.16-.26-.16-.28 0L6.07 17.3c-.1.38-.23.48-.61.48h-1.6c-.41 0-.55-.07-.62-.48zM27.35 8.65v8.62c0 .35-.14.5-.5.5h-2.22c-.35 0-.5-.15-.5-.5V9.22c0-1.24-.75-1.69-1.39-1.66-.66 0-1.35.5-1.35 1.66v8.05c0 .35-.14.5-.5.5h-2.22c-.35 0-.5-.15-.5-.5V.5c0-.36.15-.5.5-.5h2.23c.35 0 .5.14.5.5v5.33a3.6 3.6 0 011.84-1.07c2.08-.42 4.11 1.1 4.11 3.89zM29.25 14.02c0-3.55 3.07-4.19 5.81-4.43v-.8c0-.95-.59-1.4-1.28-1.4-.68 0-1.1.43-1.22 1.11-.05.24-.2.31-.4.31H30.1c-.29 0-.31-.21-.31-.42.05-2.68 2.1-3.7 4.2-3.7 2.14 0 4.29 1.26 4.29 4.64v5.48c0 1.37.1 1.8.23 2.48.07.36-.11.48-.47.48h-2.1c-.36 0-.45-.12-.55-.83-.5.52-1.2.85-1.94 1-2.08.4-4.2-1.03-4.2-3.92zm5.81-.56v-2.02c-1.6.22-2.65.67-2.6 2.2.05 1.02.66 1.52 1.32 1.47.64-.02 1.28-.5 1.28-1.65zM41.3 13.57V7.9c0-.31-.07-.4-.37-.4h-.48c-.35 0-.5-.15-.5-.5V5.4c0-.35.15-.5.5-.5h.64c.3 0 .4-.07.4-.4V2.7c0-.35.15-.5.5-.5h1.96c.36 0 .5.15.5.5v1.8c0 .33.07.4.38.4h1.13c.36 0 .5.15.5.5V7c0 .35-.14.5-.5.5h-1.04c-.3 0-.4.09-.4.4v5.68c0 .95.43 1.5 1.44 1.5.36 0 .5.14.5.5v1.7c0 .35-.14.5-.5.5-3.24 0-4.66-1.12-4.66-4.2zM48.19.47c-.03-.38.11-.47.47-.47h1.68c.35 0 .5.1.47.47l-.19 4.9c-.02.34-.1.48-.45.48h-1.35c-.35 0-.42-.14-.45-.47L48.2.48zM52.09 14.28c-.03-.2.02-.42.3-.42h2.23c.2 0 .35.07.4.3.19.7.56 1.12 1.2 1.12.57 0 1.04-.33 1.04-.95.1-1.92-4.77-1.94-5.03-5.75-.17-2.4 1.68-3.89 3.9-3.89 1.82 0 3.88 1.07 3.92 3.7 0 .2-.02.42-.3.42h-2.06c-.21 0-.36-.07-.4-.3-.1-.5-.36-1.1-1.02-1.12a.89.89 0 00-1 .85c-.06 1.76 5.35 2.16 5.26 6.07-.05 2.34-1.99 3.67-4.24 3.67-2.27 0-3.9-1.33-4.2-3.7zM78.36.5v16.77c0 .35-.15.5-.5.5h-1.82c-.4 0-.55-.15-.71-.5l-3.95-8.79c-.07-.17-.26-.14-.26.02v8.77c0 .35-.14.5-.5.5h-2.4c-.36 0-.5-.15-.5-.5V.5c0-.36.14-.5.5-.5h1.81c.38 0 .55.14.69.5l3.95 8.79c.07.16.26.14.26-.03V.5c0-.36.14-.5.5-.5h2.43c.35 0 .5.14.5.5zM89.42 9.71v.4c0 .48-.02.74-.07 1.21-.05.36-.14.5-.5.5H83.9c-.19 0-.24.05-.24.24v1.42c0 1.2.76 1.63 1.4 1.63.66 0 1.09-.42 1.25-.94.07-.24.19-.31.4-.31h2.2c.28 0 .33.21.3.42-.32 2.9-2.4 3.7-4.15 3.7-2.18 0-4.54-1.28-4.54-5.57v-2.18c0-4.26 2.36-5.54 4.54-5.54 1.98 0 4.37 1.07 4.37 5.02zM85.14 7.4c-.61 0-1.49.43-1.49 1.66v.35c0 .2.05.24.24.24h2.5c.2 0 .24-.05.24-.24v-.35c0-1.23-.85-1.66-1.49-1.66zM104.98 5.38l-2.93 11.91c-.1.38-.24.48-.62.48H99.9c-.37 0-.54-.12-.61-.48l-1.4-5.37c-.04-.17-.23-.17-.28 0l-1.37 5.37c-.1.36-.24.48-.61.48h-1.57c-.37 0-.52-.1-.61-.48L90.5 5.38c-.07-.31.05-.48.3-.48h2.4c.3 0 .47.17.54.48l1.25 5.8c.02.17.24.17.28 0l1.33-5.8c.07-.36.24-.48.61-.48h1.07c.38 0 .52.12.61.48l1.3 5.8c.05.17.26.17.29 0l1.25-5.8c.07-.31.24-.48.54-.48h2.4c.25 0 .37.17.3.48z"/></svg>